<?xml version="1.0" encoding="utf-8"?>
<!-- Generator: Adobe Illustrator 17.0.0, SVG Export Plug-In . SVG Version: 6.00 Build 0)  -->
<!DOCTYPE svg PUBLIC "-//W3C//DTD SVG 1.1//EN" "http://www.w3.org/Graphics/SVG/1.1/DTD/svg11.dtd">
<svg version="1.1" id="Layer_1" xmlns="http://www.w3.org/2000/svg" xmlns:xlink="http://www.w3.org/1999/xlink" x="0px" y="0px"
	 width="20px" height="20px" viewBox="0 0 20 20" enable-background="new 0 0 20 20" xml:space="preserve">
<circle fill="#4161A5" cx="10" cy="10" r="10"/>
<g>
	<path fill="#F2F2F2" d="M14.054,4.932H5.946c-0.559,0-1.015,0.455-1.015,1.015v8.107c0,0.559,0.455,1.015,1.015,1.015h8.107
		c0.559,0,1.015-0.456,1.015-1.015V5.947C15.068,5.387,14.613,4.932,14.054,4.932L14.054,4.932z M10,7.973
		c1.116,0,2.027,0.91,2.027,2.027c0,1.116-0.911,2.027-2.027,2.027c-1.116,0-2.027-0.911-2.027-2.027
		C7.973,8.884,8.884,7.973,10,7.973L10,7.973z M6.199,14.053c-0.151,0-0.252-0.102-0.252-0.252V9.493h1.064
		C6.959,9.646,6.959,9.849,6.959,10c0,1.673,1.369,3.042,3.041,3.042c1.673,0,3.041-1.368,3.041-3.042c0-0.151,0-0.354-0.052-0.507
		h1.064v4.309c0,0.151-0.101,0.252-0.252,0.252H6.199z M14.054,7.214c0,0.151-0.101,0.252-0.252,0.252h-1.015
		c-0.151,0-0.252-0.102-0.252-0.252V6.199c0-0.151,0.101-0.252,0.252-0.252h1.015c0.151,0,0.252,0.102,0.252,0.252V7.214z
		 M14.054,7.214"/>
</g>
</svg>
