<?xml version="1.0" encoding="utf-8"?>
<!-- Generator: Adobe Illustrator 17.0.0, SVG Export Plug-In . SVG Version: 6.00 Build 0)  -->
<!DOCTYPE svg PUBLIC "-//W3C//DTD SVG 1.1//EN" "http://www.w3.org/Graphics/SVG/1.1/DTD/svg11.dtd">
<svg version="1.1" id="Layer_1" xmlns="http://www.w3.org/2000/svg" xmlns:xlink="http://www.w3.org/1999/xlink" x="0px" y="0px"
	 width="20px" height="20px" viewBox="0 0 20 20" enable-background="new 0 0 20 20" xml:space="preserve">
<circle fill="#025A84" cx="10" cy="10" r="10"/>
<g>
	<path fill="#F2F2F2" d="M15.747,10.798v3.98h-2.307v-3.713c0-0.933-0.333-1.569-1.169-1.569c-0.638,0-1.016,0.429-1.184,0.844
		c-0.061,0.148-0.076,0.354-0.076,0.562v3.876H8.703c0,0,0.031-6.289,0-6.94h2.308v0.983c-0.005,0.008-0.011,0.015-0.015,0.023
		h0.015V8.821c0.307-0.472,0.854-1.146,2.08-1.146C14.608,7.675,15.747,8.667,15.747,10.798L15.747,10.798z M6.289,4.492
		c-0.79,0-1.306,0.518-1.306,1.199c0,0.666,0.502,1.199,1.276,1.199h0.015c0.805,0,1.305-0.533,1.305-1.199
		C7.563,5.01,7.078,4.492,6.289,4.492L6.289,4.492z M5.12,14.778h2.307v-6.94H5.12V14.778z M5.12,14.778"/>
</g>
</svg>
