<?xml version="1.0" encoding="utf-8"?>
<!-- Generator: Adobe Illustrator 17.0.0, SVG Export Plug-In . SVG Version: 6.00 Build 0)  -->
<!DOCTYPE svg PUBLIC "-//W3C//DTD SVG 1.1//EN" "http://www.w3.org/Graphics/SVG/1.1/DTD/svg11.dtd">
<svg version="1.1" id="Layer_1" xmlns="http://www.w3.org/2000/svg" xmlns:xlink="http://www.w3.org/1999/xlink" x="0px" y="0px"
	 width="20px" height="20px" viewBox="0 0 20 20" enable-background="new 0 0 20 20" xml:space="preserve">
<circle fill="#7D529D" cx="10" cy="10" r="10"/>
<g>
	<g id="g4780">
		<g id="g15" transform="matrix(1.452588,0,0,1.452588,-115.17955,-97.147891)">
			<path id="path17-6" fill="#F2F2F2" d="M89.196,75.34c-0.222-0.179-0.459-0.339-0.693-0.503c-0.466-0.327-0.892-0.353-1.239,0.174
				c-0.195,0.295-0.468,0.308-0.754,0.179c-0.788-0.357-1.396-0.907-1.752-1.708c-0.157-0.354-0.155-0.672,0.213-0.922
				c0.195-0.132,0.392-0.289,0.376-0.579c-0.02-0.377-0.937-1.639-1.299-1.772c-0.15-0.055-0.299-0.052-0.451,0
				c-0.849,0.285-1.2,0.983-0.863,1.809c1.004,2.465,2.771,4.181,5.203,5.229c0.139,0.059,0.293,0.083,0.371,0.105
				c0.554,0.006,1.202-0.528,1.39-1.058C89.879,75.785,89.498,75.583,89.196,75.34L89.196,75.34z"/>
			<path id="path19-1" fill="#F2F2F2" d="M86.469,70.365c1.778,0.273,2.598,1.119,2.825,2.91c0.021,0.165-0.041,0.414,0.195,0.419
				c0.247,0.005,0.187-0.241,0.189-0.406c0.021-1.687-1.45-3.251-3.158-3.308c-0.129,0.019-0.395-0.089-0.412,0.2
				C86.097,70.375,86.322,70.343,86.469,70.365L86.469,70.365z"/>
			<path id="path21-2" fill="#F2F2F2" d="M86.817,70.856c-0.171-0.021-0.397-0.101-0.437,0.136c-0.042,0.249,0.21,0.224,0.372,0.26
				c1.098,0.245,1.481,0.645,1.661,1.735c0.026,0.159-0.026,0.406,0.244,0.365c0.2-0.03,0.128-0.242,0.145-0.366
				C88.811,71.94,87.914,70.988,86.817,70.856L86.817,70.856z"/>
			<path id="path23" fill="#F2F2F2" d="M86.918,71.712c-0.114,0.003-0.226,0.015-0.268,0.137c-0.063,0.182,0.07,0.226,0.204,0.247
				c0.451,0.072,0.688,0.338,0.733,0.787c0.012,0.122,0.09,0.221,0.207,0.207c0.163-0.019,0.178-0.165,0.173-0.303
				C87.975,72.283,87.405,71.7,86.918,71.712L86.918,71.712z"/>
		</g>
	</g>
</g>
</svg>
