<?xml version="1.0" encoding="utf-8"?>
<!-- Generator: Adobe Illustrator 17.0.0, SVG Export Plug-In . SVG Version: 6.00 Build 0)  -->
<!DOCTYPE svg PUBLIC "-//W3C//DTD SVG 1.1//EN" "http://www.w3.org/Graphics/SVG/1.1/DTD/svg11.dtd">
<svg version="1.1" id="Layer_1" xmlns="http://www.w3.org/2000/svg" xmlns:xlink="http://www.w3.org/1999/xlink" x="0px" y="0px"
	 width="100px" height="42px" viewBox="0 0 100 42" enable-background="new 0 0 100 42" xml:space="preserve">
<rect x="-3.304" y="-11.151" transform="matrix(0.7071 -0.7071 0.7071 0.7071 -15.2547 4.8243)" fill="#FFFFFF" width="3" height="63.954"/>
<rect x="-15.627" y="-11.151" transform="matrix(0.7071 -0.7071 0.7071 0.7071 -18.864 -3.8893)" fill="#FFFFFF" width="3" height="63.954"/>
<rect x="9.206" y="-11.151" transform="matrix(0.7071 -0.7071 0.7071 0.7071 -11.5905 13.6705)" fill="#FFFFFF" width="3" height="63.954"/>
<rect x="21.717" y="-11.151" transform="matrix(0.7071 -0.7071 0.7071 0.7071 -7.9263 22.5167)" fill="#FFFFFF" width="3" height="63.954"/>
<rect x="46.738" y="-11.151" transform="matrix(0.7071 -0.7071 0.7071 0.7071 -0.5979 40.209)" fill="#FFFFFF" width="3" height="63.954"/>
<rect x="59.248" y="-11.151" transform="matrix(0.7071 -0.7071 0.7071 0.7071 3.0663 49.0552)" fill="#FFFFFF" width="3" height="63.954"/>
<rect x="34.227" y="-11.151" transform="matrix(0.7071 -0.7071 0.7071 0.7071 -4.2621 31.3629)" fill="#FFFFFF" width="3" height="63.954"/>
<rect x="71.758" y="-11.151" transform="matrix(0.7071 -0.7071 0.7071 0.7071 6.7305 57.9014)" fill="#FFFFFF" width="3" height="63.954"/>
<rect x="84.269" y="-11.151" transform="matrix(0.7071 -0.7071 0.7071 0.7071 10.3947 66.7476)" fill="#FFFFFF" width="3" height="63.954"/>
<rect x="83.852" y="-11.151" transform="matrix(0.7071 -0.7071 0.7071 0.7071 10.2727 66.4529)" fill="#FFFFFF" width="3" height="63.954"/>
<rect x="109.081" y="-11.151" transform="matrix(0.7071 -0.7071 0.7071 0.7071 17.6621 84.2926)" fill="#FFFFFF" width="3" height="63.954"/>
<rect x="96.779" y="-11.151" transform="matrix(0.7071 -0.7071 0.7071 0.7071 14.0589 75.5938)" fill="#FFFFFF" width="3" height="63.954"/>
</svg>
