<?xml version="1.0" encoding="utf-8"?>
<!-- Generator: Adobe Illustrator 17.0.0, SVG Export Plug-In . SVG Version: 6.00 Build 0)  -->
<!DOCTYPE svg PUBLIC "-//W3C//DTD SVG 1.1//EN" "http://www.w3.org/Graphics/SVG/1.1/DTD/svg11.dtd">
<svg version="1.1" id="Layer_1" xmlns="http://www.w3.org/2000/svg" xmlns:xlink="http://www.w3.org/1999/xlink" x="0px" y="0px"
	 width="20px" height="20px" viewBox="0 0 20 20" enable-background="new 0 0 20 20" xml:space="preserve">
<circle fill="#2CADE3" cx="10" cy="10" r="10"/>
<g>
	<path fill="#F2F2F2" d="M15.01,10.791c0.041-0.258,0.062-0.522,0.062-0.791c0-2.803-2.271-5.073-5.073-5.073
		c-0.27,0-0.534,0.022-0.792,0.062C8.741,4.7,8.19,4.533,7.598,4.533c-1.693,0-3.065,1.372-3.065,3.066
		c0,0.591,0.167,1.141,0.456,1.61C4.949,9.467,4.927,9.73,4.927,10c0,2.802,2.271,5.073,5.072,5.073
		c0.269,0,0.534-0.021,0.792-0.062c0.468,0.289,1.019,0.456,1.61,0.456c1.693,0,3.066-1.373,3.066-3.065
		C15.467,11.811,15.3,11.26,15.01,10.791L15.01,10.791z M12.409,12.307c-0.215,0.309-0.53,0.55-0.942,0.723
		c-0.413,0.174-0.901,0.261-1.464,0.261c-0.675,0-1.234-0.118-1.675-0.357c-0.313-0.171-0.567-0.399-0.763-0.686
		c-0.196-0.286-0.296-0.566-0.296-0.84c0-0.16,0.062-0.301,0.181-0.415c0.121-0.115,0.277-0.172,0.461-0.172
		c0.151,0,0.279,0.045,0.385,0.135c0.104,0.09,0.192,0.22,0.263,0.392c0.086,0.2,0.18,0.367,0.279,0.499
		c0.099,0.132,0.238,0.242,0.417,0.327c0.178,0.086,0.415,0.129,0.711,0.129c0.405,0,0.733-0.087,0.983-0.261
		c0.252-0.174,0.373-0.386,0.373-0.643c0-0.205-0.065-0.367-0.198-0.493c-0.135-0.129-0.31-0.227-0.527-0.295
		c-0.217-0.069-0.509-0.142-0.874-0.219c-0.491-0.107-0.901-0.232-1.234-0.375C8.156,9.875,7.89,9.679,7.694,9.43
		C7.497,9.18,7.399,8.868,7.399,8.499c0-0.352,0.104-0.667,0.311-0.94c0.208-0.275,0.508-0.485,0.899-0.631
		c0.39-0.146,0.849-0.22,1.376-0.22c0.42,0,0.784,0.048,1.092,0.145c0.307,0.098,0.563,0.227,0.767,0.388
		c0.204,0.161,0.354,0.331,0.448,0.509c0.095,0.178,0.143,0.354,0.143,0.524c0,0.159-0.061,0.303-0.181,0.429
		c-0.12,0.126-0.272,0.191-0.451,0.19c-0.161,0-0.288-0.037-0.375-0.115c-0.086-0.077-0.175-0.198-0.272-0.367
		c-0.123-0.235-0.27-0.419-0.44-0.551c-0.167-0.129-0.441-0.196-0.823-0.195c-0.354,0-0.636,0.072-0.85,0.214
		c-0.215,0.143-0.318,0.31-0.318,0.505c0.001,0.123,0.036,0.225,0.107,0.313c0.072,0.089,0.172,0.166,0.3,0.232
		C9.258,8.993,9.388,9.044,9.52,9.081c0.133,0.037,0.353,0.092,0.659,0.164c0.384,0.083,0.733,0.176,1.046,0.276
		c0.313,0.101,0.579,0.224,0.799,0.369c0.222,0.145,0.396,0.329,0.52,0.554c0.125,0.224,0.186,0.497,0.186,0.819
		C12.731,11.65,12.623,11.999,12.409,12.307L12.409,12.307z M12.409,12.307"/>
</g>
</svg>
